<?xml version="1.0" encoding="UTF-8"?>
<!DOCTYPE svg PUBLIC "-//W3C//DTD SVG 1.1//EN" "http://www.w3.org/Graphics/SVG/1.1/DTD/svg11.dtd">
<!-- Creator: CorelDRAW 2019 (64-Bit) -->
<svg xmlns="http://www.w3.org/2000/svg" xml:space="preserve" width="5.11559in" height="1.59114in" version="1.1" style="shape-rendering:geometricPrecision; text-rendering:geometricPrecision; image-rendering:optimizeQuality; fill-rule:evenodd; clip-rule:evenodd"
viewBox="0 0 3299.66 1026.32"
 xmlns:xlink="http://www.w3.org/1999/xlink"
 xmlns:xodm="http://www.corel.com/coreldraw/odm/2003">
 <defs>
  <style type="text/css">
   <![CDATA[
    .fil0 {fill:black}
    .fil4 {fill:white}
    .fil3 {fill:white;fill-rule:nonzero}
    .fil1 {fill:url(#id0)}
    .fil2 {fill:url(#id1);fill-rule:nonzero}
   ]]>
  </style>
  <linearGradient id="id0" gradientUnits="userSpaceOnUse" x1="2347.35" y1="351.09" x2="2347.35" y2="879.9">
   <stop offset="0" style="stop-opacity:1; stop-color:black"/>
   <stop offset="1" style="stop-opacity:1; stop-color:black"/>
  </linearGradient>
  <linearGradient id="id1" gradientUnits="userSpaceOnUse" x1="2335.27" y1="351.37" x2="2335.27" y2="826.3">
   <stop offset="0" style="stop-opacity:1; stop-color:#FF6600"/>
   <stop offset="1" style="stop-opacity:1; stop-color:#C80000"/>
  </linearGradient>
 </defs>
 <g id="Layer_x0020_1">
  <metadata id="CorelCorpID_0Corel-Layer"/>
  <path class="fil0" d="M1159.32 668.65l2011.49 0c54.63,0 99.33,44.7 99.33,99.33l0 159c0,54.63 -44.7,99.33 -99.33,99.33l-2011.49 0c-54.63,0 -99.33,-44.7 -99.33,-99.33l0 -159c0,-54.63 44.7,-99.33 99.33,-99.33z"/>
  <path class="fil1" d="M2722.36 195.46c18.35,-21.58 38.28,-41.98 59.49,-61.27 82.23,-74.77 179.02,-123.98 291.7,-123.98 89,0 161.72,34.6 203.7,114.88l12.08 23.09 -172.5 132.06 -19.17 -20.27c-9.93,-10.5 -25.71,-12.67 -39.45,-12.67 -51.49,0 -93.31,30.96 -126.26,67.96 -31.74,35.65 -56.09,75.93 -72.28,120.8 -4.47,12.38 -8.72,27.07 -8.72,40.34 0,12.95 3.79,22.99 13.68,31.46 14.85,12.72 35.84,15.91 54.75,15.91 31.03,0 58.22,-10.71 82.83,-29.43 1.91,-1.46 3.8,-2.95 5.64,-4.47 -26.91,4.32 -53.78,8.88 -80.59,13.72l-49.76 8.97 57.34 -189.57 363.11 -55.6 1.52 34.46c2.13,48.25 -14.44,96.87 -35.97,139.4 -22.14,43.73 -50.03,83.91 -82.98,120.2 -92.73,102.11 -207.5,160.12 -346.18,160.12 -87.24,0 -159.79,-32.78 -202.18,-110.98 -4.82,-8.56 -9.04,-17.31 -12.68,-26.22 -3.36,18.42 -6.47,36.87 -9.28,55.36l-3.27 21.46 -225.36 44.95 -11.59 -16.58c-2.38,-3.4 -4.52,-7.75 -6.47,-11.43 -3.76,-7.12 -7.43,-14.28 -11.08,-21.45l-0.11 -0.21 -40.08 -81.74c-6.96,33.76 -13.06,67.69 -18.12,101.77l-3.15 21.23 -256.14 54.87 147.9 -603.19c-25.52,74.64 -49.12,149.99 -69.89,226.03 -23.72,86.85 -43.99,175.24 -57.54,264.28l-3.27 21.49 -254.51 50.38 12.13 -49.86 -262.72 33.2 17.9 -157.91 -71.87 190.35 -187.15 18.46 37.21 -248.18 -66.91 184.03 -320.67 30.85 16.27 -29.48 -180.36 29.8 17.73 -105.56 -17.46 2.42 -24.69 74.22 -323.8 35.39 28.55 -52.11c4.01,-7.32 8,-14.65 11.98,-21.98 -72.87,49.45 -156.25,76.37 -250.73,76.37 -87.24,0 -159.79,-32.78 -202.18,-110.98 -21.16,-37.6 -30.75,-78.76 -30.75,-121.78 0,-45.27 11.02,-90.64 26.34,-133.01 31.37,-86.77 86.21,-159.88 154.08,-221.6 82.23,-74.77 179.01,-123.98 291.7,-123.98 89,0 161.72,34.6 203.7,114.88l12.07 23.09 -172.5 132.06 -19.17 -20.27c-9.93,-10.5 -25.71,-12.67 -39.45,-12.67 -51.49,0 -93.31,30.96 -126.26,67.96 -31.74,35.64 -56.09,75.93 -72.28,120.8 -4.46,12.38 -8.72,27.07 -8.72,40.34 0,12.95 3.79,22.99 13.68,31.46 14.85,12.72 35.84,15.91 54.75,15.91 31.03,0 58.22,-10.71 82.84,-29.43 1.91,-1.46 3.79,-2.95 5.64,-4.47 -26.91,4.32 -53.78,8.88 -80.59,13.72l-49.77 8.97 57.34 -189.57 332.53 -50.92c29.11,-67.26 56.44,-135.29 81.65,-204.11l6.53 -17.83 417.76 -50.15 -10.38 43.27c-27.72,115.51 -42.75,235.57 -49.69,355.3 43.07,-101.47 79.91,-205.51 109.68,-311.77l5.6 -19.99 338.91 -39.64 -11.74 89.8 23 -59.49 328 -41.12 -7.2 41.25c-24.76,141.87 -42.77,287.27 -46.45,431.75l105.99 -435.62 272.14 -36.33 -13.57 37.45 250.89 -36.27 -3.62 39.11c-2.14,23.17 -2.26,47.38 -2.26,70.64 0,40.49 0.95,81.29 3.56,121.92l47.97 -196.52 272.13 -36.33 -17.39 47.99c-15.62,43.11 -30.71,86.47 -45.1,130.07z"/>
  <path class="fil2" d="M232.92 690.61c-82.46,0 -140.82,-31.62 -175.07,-94.99 -17.93,-31.76 -26.89,-67.36 -26.89,-106.81 0,-37.17 8.16,-78.05 24.5,-122.48 27.29,-76.19 75.88,-145.84 145.79,-209.21 84.85,-77.33 175.08,-115.93 270.88,-115.93 83.25,0 142.01,32.76 176.27,98.27l-129.66 99.27c-14.14,-14.95 -34.66,-22.36 -61.94,-22.36 -52.98,0 -102.77,26.06 -149.38,78.33 -35.05,39.45 -61.15,83.03 -78.27,130.88 -6.97,18.94 -10.56,35.89 -10.56,50.84 0,22.79 8.17,41.16 24.5,54.97 17.92,15.52 42.82,23.36 74.89,23.36 36.45,0 70.31,-11.96 101.58,-35.75 24.9,-18.94 45.22,-42.87 60.75,-71.64 -57.56,8.26 -110.94,16.95 -159.94,25.78l37.05 -122.48 309.72 -47.42c1.59,36.03 -9.36,77.48 -32.67,124.05 -21.11,41.16 -47.2,78.9 -78.27,113.36 -91.02,99.98 -198.78,149.97 -323.26,149.97zm265.9 -8.55c114.33,-208.64 206.94,-409.88 277.85,-603.43l354.73 -42.58c-40.43,168.48 -58.76,368.01 -54.97,598.31l-247.38 40.87 17.53 -104.39 -78.27 10.82 -24.5 73.63 -244.99 26.77zm366.48 -223.45l53.58 -315.03 -1.19 0 -109.55 322.86 57.17 -7.83zm145.6 217.47c104.96,-190.27 185.23,-383.96 240.41,-580.93l278.84 -32.61 -40.03 306.2 109.35 -282.85 268.09 -33.61c-31.67,181.44 -47.6,345.08 -47.6,490.92 0,28.91 0,57.68 0,86.02l-237.81 30.05 41.43 -365.45 -152.77 404.61 -128.47 12.67 77.08 -514.13 -165.71 455.74 -242.79 23.36zm971.77 -594.46l200.57 -26.78c-80.87,223.17 -133.65,416.58 -158.54,580.22l-185.63 36.74 143.61 -590.18zm247.97 2.42l201.96 -29.2c-1.59,17.23 -2.39,41.73 -2.39,73.49 0,75.77 3.59,142.28 10.56,199.53 3.98,32.9 9.76,59.39 17.52,79.33l79.47 -325.57 200.57 -26.78c-80.86,223.17 -133.84,416.58 -158.74,580.22l-184.23 36.74c-0.79,-1.14 -5.98,-10.82 -15.34,-29.19l-60.55 -123.48c-10.16,-20.08 -15.93,-32.9 -17.53,-38.45 -16.33,65.66 -29.28,129.46 -38.44,191.27l-186.83 40.02 153.96 -627.93zm603.69 606.56c-82.46,0 -140.81,-31.62 -175.07,-94.99 -17.93,-31.76 -26.89,-67.36 -26.89,-106.81 0,-37.17 8.16,-78.05 24.5,-122.48 27.29,-76.19 75.88,-145.84 145.8,-209.21 84.85,-77.33 175.08,-115.93 270.88,-115.93 83.25,0 142.01,32.76 176.27,98.27l-129.66 99.27c-14.14,-14.95 -34.65,-22.36 -61.94,-22.36 -52.98,0 -102.77,26.06 -149.38,78.33 -35.05,39.45 -61.15,83.03 -78.27,130.88 -6.97,18.94 -10.56,35.89 -10.56,50.84 0,22.79 8.17,41.16 24.5,54.97 17.93,15.52 42.82,23.36 74.89,23.36 36.45,0 70.31,-11.96 101.58,-35.75 24.89,-18.94 45.21,-42.87 60.75,-71.64 -57.56,8.26 -110.94,16.95 -159.93,25.78l37.05 -122.48 309.72 -47.42c1.59,36.03 -9.36,77.48 -32.67,124.05 -21.11,41.16 -47.2,78.9 -78.27,113.36 -91.02,99.98 -198.78,149.97 -323.26,149.97z"/>
  <path class="fil3" d="M1409.66 965.51l-141.74 0 -0.32 -41.1 19.11 0 0 -153.25 -19.11 0 0 -42.57 142.7 0 28.35 22.85 0 190.34 -28.99 23.73zm-24.85 -194.36l-47.78 0 0 153.25 47.78 0 0 -153.25zm341.98 195.24l-75.49 0 -27.39 -25.83 0 -170.28 -14.02 0 0 -40.81 69.12 0 0 40.81 -11.79 0 0 153.55 43.96 0 0 -153.55 -12.42 0 0 -40.81 69.12 0 0 40.81 -13.38 0 0 170.18 -27.71 25.93zm231.45 -0.88l-24.21 -22.27 0 -195.58 21.34 -19.08 120.72 0 23.25 21.04 0 45.6 -50.33 0 0 -24.07 -65.3 0 0 152.96 65.3 0 0 -40.81 -41.73 0 0 -42.57 67.85 0 24.21 22.61 0 80.74 -23.25 21.43 -117.85 0zm330.83 0l-20.7 -19.08 0 -194.99 24.53 -22.85 105.75 0 24.21 21.97 0 192.99 -23.57 21.97 -110.21 0zm83.45 -194.36l-53.83 0 0 153.25 53.83 0 0 -153.25zm339.75 195.24l-75.49 0 -27.39 -25.83 0 -170.28 -14.02 0 0 -40.81 69.12 0 0 40.81 -11.79 0 0 153.55 43.96 0 0 -153.55 -12.42 0 0 -40.81 69.12 0 0 40.81 -13.38 0 0 170.18 -27.71 25.93zm333.7 -0.88l-85.68 0 0 -41.4 16.88 0 0 -153.55 -16.24 0 0 28.48 -41.41 0 0 -69.58 166.27 0 0 69.58 -41.41 0 0 -28.48 -16.24 0 0 153.55 17.84 0 0 41.4z"/>
  <path class="fil4" d="M1098.43 59.03l-309.96 37.21c-34.01,91.76 -71.7,182.16 -112.32,271.18 -4.79,10.49 -16.72,15.55 -27.59,11.68 -0.54,-0.19 -1.07,-0.41 -1.59,-0.63l-0.12 0.46c-2.91,11.16 3.16,22.61 14.03,26.47 10.87,3.86 22.8,-1.19 27.59,-11.68 40.62,-89.02 78.31,-179.42 112.32,-271.18l291.64 -35.01c1.93,-9.52 3.93,-19.02 6.01,-28.5zm-464.44 296.44c0.12,-0.94 0.3,-1.89 0.55,-2.84 2.23,-8.58 4,-17.36 5.08,-26.21l-269.36 41.25 -22.57 74.62c7.12,-1.22 14.24,-2.42 21.36,-3.6l13.53 -44.72 251.41 -38.5zm-136.63 95.09c-0.45,1.54 -1.07,3.07 -1.87,4.55 -16.66,30.85 -38.92,57.52 -66.83,78.75 -33.89,25.78 -72.31,40.27 -115,40.27 -32.26,0 -64.29,-7.26 -89.31,-28.69 -6.39,-5.47 -11.81,-11.48 -16.28,-17.95 4.77,16.98 14.24,31.95 28.6,44.25 25.02,21.43 57.05,28.69 89.31,28.69 42.69,0 81.1,-14.49 115,-40.27 27.91,-21.23 50.17,-47.9 66.83,-78.75 4.08,-7.55 3.59,-16.17 -1.32,-23.21 -2.41,-3.46 -5.54,-6.04 -9.12,-7.64zm112.43 -315.55l5.28 -4.04c-33.34,-50.68 -84.43,-70.41 -147.26,-70.41 -99.21,0 -183.71,44.47 -255.97,110.17 -61.4,55.83 -111.46,121.82 -139.86,200.35 -13.16,36.39 -23.18,76.03 -23.18,114.94 0,33.94 7.28,66.25 24.03,95.92 0.07,0.12 0.13,0.23 0.2,0.36 0.07,0.13 0.15,0.26 0.22,0.4 -8.36,-22.36 -12.13,-45.94 -12.13,-70.38 0,-38.91 10.02,-78.55 23.18,-114.94 28.4,-78.54 78.46,-144.52 139.86,-200.36 72.25,-65.69 156.76,-110.16 255.97,-110.16 52.64,0 97.04,13.86 129.66,48.15zm11.84 346.78c-0.36,1.26 -0.83,2.5 -1.43,3.72 -27.62,56.25 -56.34,111.96 -86.02,167.14l27.98 -3.06c24.15,-45.57 47.62,-91.5 70.35,-137.79 5.16,-10.51 1.29,-23.16 -8.86,-28.99 -0.66,-0.38 -1.34,-0.72 -2.02,-1.03zm242.09 92.3l-11.99 71.44 17.2 -2.84 7.5 -44.66c1.21,-7.18 -0.89,-13.89 -5.96,-19.11 -2.02,-2.08 -4.29,-3.69 -6.75,-4.82zm182.68 71.25c-0.19,0.65 -0.41,1.3 -0.66,1.94l3.57 -0.35c-0.93,-0.61 -1.91,-1.14 -2.92,-1.59zm390.18 -445.01l-72.44 483.17 16.5 -1.63 68.68 -458.07c1.5,-9.98 -3.84,-19.44 -12.74,-23.46zm204.27 96.9l-37.84 333.76 15.52 -1.96 35.05 -309.17c1.1,-9.71 -4.16,-18.71 -12.73,-22.63zm190.86 -193.58c1.52,-9.49 3.07,-18.96 4.65,-28.42l-225.31 28.25 -104.57 270.49c-4.07,10.52 -15.21,16.27 -26.15,13.49 -1.31,-0.34 -2.57,-0.78 -3.76,-1.32l-0.43 3.27c-1.46,11.18 5.57,21.57 16.5,24.35 10.93,2.78 22.08,-2.97 26.14,-13.49l104.57 -270.49 208.35 -26.12zm-335.22 9.61l3.68 -28.17 -235.9 27.59c-43.95,153.4 -102.32,302.24 -172.66,445.46 -4.61,9.39 -14.81,14.2 -24.99,11.8 -1.66,-0.39 -3.23,-0.96 -4.7,-1.67 -0.02,2.08 -0.04,4.16 -0.05,6.23 -0.08,10.46 6.89,19.33 17.07,21.73 10.18,2.4 20.38,-2.41 24.99,-11.8 70.34,-143.22 128.72,-292.06 172.66,-445.46l219.9 -25.72zm-632.49 364.54l-57.16 7.83c-4.28,0.59 -8.38,0.01 -12.04,-1.63 -2.03,7.11 -0.52,14.29 4.25,20.08 5.03,6.1 12.27,8.92 20.1,7.85l57.16 -7.83c9.75,-1.34 17.19,-8.54 18.84,-18.24l53.58 -315.03c1.13,-6.66 -0.56,-12.85 -4.92,-18.01 -2.24,-2.65 -4.86,-4.65 -7.79,-5.97l-53.18 312.72c-1.65,9.7 -9.09,16.91 -18.84,18.24zm1132.32 -378.98l-131.82 541.74 19.66 -3.89 124.47 -511.56 126.87 -16.94c3.4,-9.78 6.83,-19.56 10.29,-29.32l-149.47 19.95zm247.99 2.26l-141.98 579.05 19.8 -4.24 134.49 -548.51 147.2 -21.28c0.08,-9.37 0.26,-18.79 0.63,-28.17l-160.15 23.15zm82.34 388.48c1.83,3.84 3.72,7.67 5.62,11.48 -0.39,-1.02 -0.74,-2.01 -1.01,-2.93 -0.94,-3.26 -2.53,-6.15 -4.61,-8.55zm363.95 -381.38c3.4,-9.78 6.83,-19.56 10.29,-29.32l-149.48 19.96 -75.88 310.86c-2.33,9.55 -10.26,16.21 -20.07,16.86 -5.92,0.39 -11.45,-1.48 -15.69,-5.03 1.75,5.89 3.71,11.67 5.88,17.26 3.57,9.16 12.3,14.72 22.12,14.07 9.81,-0.65 17.74,-7.31 20.07,-16.86l75.88 -310.86 126.88 -16.94zm550.45 218.25l-269.36 41.25 -22.57 74.62c7.12,-1.22 14.24,-2.42 21.36,-3.6l13.53 -44.72 251.21 -38.47c2.64,-9.61 4.65,-19.35 5.84,-29.08zm-142.26 124.14c-0.45,1.54 -1.07,3.07 -1.87,4.55 -16.66,30.85 -38.92,57.52 -66.83,78.75 -33.89,25.78 -72.31,40.27 -115,40.27 -32.26,0 -64.29,-7.26 -89.31,-28.69 -6.39,-5.47 -11.81,-11.48 -16.28,-17.95 4.77,16.98 14.23,31.95 28.59,44.25 25.02,21.43 57.05,28.69 89.31,28.69 42.69,0 81.1,-14.49 115,-40.27 27.91,-21.23 50.17,-47.9 66.83,-78.75 4.08,-7.55 3.59,-16.17 -1.33,-23.21 -2.41,-3.46 -5.54,-6.04 -9.12,-7.64zm112.43 -315.55l5.28 -4.04c-33.34,-50.68 -84.43,-70.41 -147.26,-70.41 -99.21,0 -183.71,44.47 -255.97,110.17 -61.4,55.83 -111.46,121.82 -139.86,200.35 -13.16,36.39 -23.18,76.03 -23.18,114.94 0,33.94 7.28,66.25 24.03,95.92 0.07,0.12 0.13,0.23 0.2,0.36 0.07,0.13 0.15,0.26 0.22,0.4 -8.36,-22.36 -12.13,-45.94 -12.13,-70.38 0,-38.91 10.02,-78.55 23.18,-114.94 28.4,-78.54 78.46,-144.52 139.86,-200.36 72.25,-65.69 156.76,-110.16 255.97,-110.16 52.64,0 97.04,13.86 129.66,48.15z"/>
 </g>
</svg>
